<svg width="126" height="34" viewBox="0 0 126 34" fill="none" xmlns="http://www.w3.org/2000/svg">
<path d="M52.0411 0V12.1684H54.7024V0H52.0411Z" fill="white"/>
<path d="M56.786 3.35739V12.1684H59.193V7.54988C59.193 6.6523 59.34 6.01036 59.6338 5.62406C59.9276 5.2264 60.4022 5.02757 61.0576 5.02757C61.634 5.02757 62.0351 5.20936 62.2612 5.57293C62.4872 5.92515 62.6002 6.46483 62.6002 7.19198V12.1684H65.0072V6.74887C65.0072 6.20351 64.9563 5.70927 64.8546 5.26617C64.7642 4.8117 64.6004 4.43108 64.3631 4.12431C64.1257 3.80618 63.798 3.56191 63.3799 3.39148C62.9731 3.20969 62.4476 3.1188 61.8035 3.1188C61.295 3.1188 60.7977 3.2381 60.3118 3.47669C59.8259 3.70393 59.4304 4.07318 59.1252 4.58446H59.0744V3.35739H56.786Z" fill="white"/>
<path d="M73.055 7.73734C73.055 8.10092 73.0211 8.45313 72.9533 8.79399C72.8855 9.13484 72.7725 9.44161 72.6143 9.71429C72.4561 9.97561 72.2414 10.1858 71.9702 10.3449C71.7102 10.5039 71.3825 10.5835 70.987 10.5835C70.6141 10.5835 70.292 10.5039 70.0208 10.3449C69.7609 10.1744 69.5405 9.95856 69.3597 9.69724C69.1902 9.42456 69.0659 9.1178 68.9868 8.77694C68.9077 8.43609 68.8682 8.09524 68.8682 7.75439C68.8682 7.39081 68.9021 7.04428 68.9699 6.71479C69.049 6.37394 69.1676 6.07285 69.3258 5.81153C69.4953 5.55021 69.7157 5.34002 69.9869 5.18095C70.2581 5.02189 70.5915 4.94236 70.987 4.94236C71.3825 4.94236 71.7102 5.02189 71.9702 5.18095C72.2301 5.34002 72.4391 5.55021 72.5973 5.81153C72.7668 6.06149 72.8855 6.35689 72.9533 6.69775C73.0211 7.02724 73.055 7.37377 73.055 7.73734ZM73.0889 11.0436V12.1684H75.3773V0H72.9703V4.43108H72.9364C72.6651 3.99933 72.2922 3.67552 71.8176 3.45965C71.3543 3.23241 70.8627 3.1188 70.3429 3.1188C69.6987 3.1188 69.1337 3.24946 68.6478 3.51078C68.1619 3.76074 67.755 4.09591 67.4273 4.51629C67.1109 4.93668 66.8679 5.42523 66.6984 5.98196C66.5402 6.52732 66.4611 7.09541 66.4611 7.68622C66.4611 8.29975 66.5402 8.89056 66.6984 9.45865C66.8679 10.0267 67.1109 10.5323 67.4273 10.9754C67.755 11.4072 68.1675 11.7537 68.6647 12.015C69.162 12.265 69.7383 12.39 70.3937 12.39C70.9701 12.39 71.4842 12.2877 71.9363 12.0832C72.3996 11.8673 72.7725 11.5208 73.055 11.0436H73.0889Z" fill="white"/>
<path d="M85.4178 12.1684V3.35739H83.0107V7.97594C83.0107 8.87352 82.8638 9.52114 82.57 9.9188C82.2762 10.3051 81.8016 10.4982 81.1461 10.4982C80.5698 10.4982 80.1686 10.3221 79.9426 9.96993C79.7166 9.60635 79.6036 9.06099 79.6036 8.33384V3.35739H77.1966V8.77694C77.1966 9.32231 77.2418 9.82222 77.3322 10.2767C77.4339 10.7198 77.6034 11.1004 77.8407 11.4185C78.078 11.7253 78.4001 11.9639 78.8069 12.1343C79.225 12.3048 79.7562 12.39 80.4003 12.39C80.9088 12.39 81.4061 12.2764 81.892 12.0491C82.3779 11.8219 82.7734 11.4526 83.0785 10.9414H83.1294V12.1684H85.4178Z" fill="white"/>
<path d="M89.1092 9.30526H86.8208C86.8434 9.89608 86.9734 10.3903 87.2107 10.788C87.4593 11.1743 87.7701 11.4867 88.143 11.7253C88.5272 11.9639 88.9623 12.1343 89.4482 12.2366C89.9341 12.3388 90.4314 12.39 90.9399 12.39C91.4371 12.39 91.923 12.3388 92.3977 12.2366C92.8836 12.1457 93.313 11.981 93.6859 11.7424C94.0589 11.5038 94.3583 11.1913 94.5843 10.805C94.8216 10.4074 94.9403 9.9188 94.9403 9.33935C94.9403 8.93033 94.8612 8.58948 94.703 8.31679C94.5448 8.03275 94.3357 7.79983 94.0758 7.61805C93.8159 7.4249 93.5164 7.27151 93.1774 7.1579C92.8497 7.04428 92.5107 6.9477 92.1604 6.86817C91.8213 6.78864 91.488 6.71479 91.1603 6.64662C90.8325 6.57845 90.5387 6.5046 90.2788 6.42506C90.0302 6.33417 89.8268 6.22055 89.6686 6.08421C89.5104 5.94787 89.4313 5.77176 89.4313 5.55589C89.4313 5.3741 89.4765 5.23208 89.5669 5.12983C89.6573 5.01621 89.7646 4.93099 89.8889 4.87419C90.0245 4.81738 90.1715 4.78329 90.3297 4.77193C90.4879 4.74921 90.6348 4.73785 90.7704 4.73785C91.1998 4.73785 91.5727 4.82306 91.8891 4.99348C92.2056 5.15255 92.3807 5.465 92.4146 5.93083H94.703C94.6578 5.38546 94.5165 4.93668 94.2792 4.58446C94.0532 4.22089 93.765 3.93116 93.4147 3.71529C93.0644 3.49942 92.6632 3.34603 92.2112 3.25514C91.7705 3.16424 91.3128 3.1188 90.8382 3.1188C90.3636 3.1188 89.9002 3.16424 89.4482 3.25514C88.9962 3.33467 88.5894 3.48237 88.2278 3.69825C87.8661 3.90276 87.5723 4.1868 87.3463 4.55038C87.1316 4.91395 87.0242 5.37978 87.0242 5.94787C87.0242 6.33417 87.1033 6.66366 87.2616 6.93634C87.4198 7.19766 87.6288 7.41922 87.8887 7.601C88.1487 7.77143 88.4425 7.91345 88.7702 8.02707C89.1092 8.12932 89.4539 8.22022 89.8042 8.29975C90.663 8.48154 91.3298 8.66333 91.8044 8.84511C92.2903 9.0269 92.5333 9.29958 92.5333 9.66316C92.5333 9.87903 92.4824 10.0608 92.3807 10.2085C92.279 10.3449 92.1491 10.4585 91.9909 10.5494C91.8439 10.6289 91.6744 10.6914 91.4823 10.7368C91.3015 10.7709 91.1264 10.788 90.9568 10.788C90.7195 10.788 90.4879 10.7596 90.2619 10.7028C90.0472 10.6459 89.855 10.5607 89.6855 10.4471C89.516 10.3221 89.3748 10.1688 89.2618 9.98697C89.1601 9.79382 89.1092 9.56658 89.1092 9.30526Z" fill="white"/>
<path d="M99.4002 3.35739V0.715789H96.9932V3.35739H95.5354V4.97644H96.9932V10.1744C96.9932 10.6175 97.0667 10.9754 97.2136 11.2481C97.3605 11.5208 97.5582 11.731 97.8069 11.8787C98.0668 12.0264 98.3606 12.123 98.6883 12.1684C99.0273 12.2252 99.3833 12.2536 99.7562 12.2536C99.9935 12.2536 100.236 12.248 100.485 12.2366C100.734 12.2252 100.96 12.2025 101.163 12.1684V10.2937C101.05 10.3165 100.931 10.3335 100.807 10.3449C100.683 10.3562 100.553 10.3619 100.417 10.3619C100.01 10.3619 99.7392 10.2937 99.6036 10.1574C99.468 10.0211 99.4002 9.74837 99.4002 9.33935V4.97644H101.163V3.35739H99.4002Z" fill="white"/>
<path d="M102.308 3.35739V12.1684H104.715V8.1975C104.715 7.79983 104.755 7.43058 104.834 7.08973C104.913 6.74887 105.043 6.45347 105.224 6.20351C105.416 5.94219 105.665 5.73768 105.97 5.58998C106.275 5.44227 106.648 5.36842 107.089 5.36842C107.235 5.36842 107.388 5.37978 107.546 5.40251C107.704 5.41387 107.84 5.43091 107.953 5.45363V3.20401C107.761 3.1472 107.586 3.1188 107.428 3.1188C107.122 3.1188 106.829 3.16424 106.546 3.25514C106.264 3.34603 105.998 3.47669 105.749 3.64712C105.501 3.80618 105.28 4.00501 105.088 4.24361C104.896 4.47084 104.744 4.7208 104.631 4.99348H104.597V3.35739H102.308Z" fill="white"/>
<path d="M111.372 1.99399V0H108.964V1.99399H111.372ZM108.964 3.35739V12.1684H111.372V3.35739H108.964Z" fill="white"/>
<path d="M113.165 6.06717C113.199 5.49908 113.34 5.02757 113.589 4.65263C113.838 4.2777 114.154 3.97661 114.538 3.74937C114.922 3.52214 115.352 3.36308 115.826 3.27218C116.312 3.16993 116.798 3.1188 117.284 3.1188C117.725 3.1188 118.171 3.15288 118.623 3.22105C119.075 3.27786 119.488 3.39716 119.861 3.57895C120.234 3.76074 120.539 4.01637 120.776 4.34587C121.013 4.66399 121.132 5.09006 121.132 5.62406V10.2085C121.132 10.6062 121.155 10.9868 121.2 11.3504C121.245 11.714 121.324 11.9866 121.437 12.1684H118.996C118.951 12.0321 118.911 11.8957 118.878 11.7594C118.855 11.6117 118.838 11.464 118.827 11.3163C118.442 11.714 117.99 11.9923 117.471 12.1514C116.951 12.3104 116.42 12.39 115.877 12.39C115.459 12.39 115.069 12.3388 114.708 12.2366C114.346 12.1343 114.03 11.9753 113.758 11.7594C113.487 11.5435 113.272 11.2708 113.114 10.9414C112.967 10.6119 112.894 10.2199 112.894 9.76542C112.894 9.2655 112.979 8.85648 113.148 8.53835C113.329 8.20886 113.555 7.94754 113.826 7.75439C114.109 7.56124 114.425 7.41922 114.775 7.32832C115.137 7.22607 115.499 7.14653 115.86 7.08973C116.222 7.03292 116.578 6.98747 116.928 6.95338C117.279 6.9193 117.589 6.86817 117.861 6.8C118.132 6.73183 118.346 6.63526 118.505 6.51028C118.663 6.37394 118.736 6.18079 118.725 5.93083C118.725 5.66951 118.68 5.465 118.589 5.31729C118.51 5.15823 118.397 5.03893 118.25 4.9594C118.115 4.86851 117.951 4.8117 117.759 4.78897C117.578 4.75489 117.38 4.73785 117.166 4.73785C116.691 4.73785 116.318 4.8401 116.047 5.04461C115.776 5.24912 115.617 5.58998 115.572 6.06717H113.165ZM118.725 7.85664C118.623 7.94754 118.493 8.02139 118.335 8.0782C118.188 8.12364 118.024 8.16341 117.844 8.1975C117.674 8.23158 117.493 8.25998 117.301 8.28271C117.109 8.30543 116.917 8.33384 116.725 8.36792C116.544 8.40201 116.363 8.44745 116.182 8.50426C116.013 8.56107 115.86 8.6406 115.725 8.74286C115.6 8.83375 115.499 8.95305 115.42 9.10075C115.34 9.24846 115.301 9.43593 115.301 9.66316C115.301 9.87903 115.34 10.0608 115.42 10.2085C115.499 10.3562 115.606 10.4755 115.742 10.5664C115.877 10.646 116.035 10.7028 116.216 10.7368C116.397 10.7709 116.584 10.788 116.776 10.788C117.25 10.788 117.618 10.7084 117.877 10.5494C118.137 10.3903 118.329 10.2028 118.454 9.98697C118.578 9.75973 118.652 9.5325 118.674 9.30526C118.708 9.07803 118.725 8.89624 118.725 8.7599V7.85664Z" fill="white"/>
<path d="M123.068 0V12.1684H125.475V0H123.068Z" fill="white"/>
<path d="M60.7877 29.5348L61.059 30.9153H62.7541V24.3368H57.6688V26.3308H60.347C60.2679 27.183 59.9854 27.8363 59.4995 28.2907C59.0249 28.7338 58.3468 28.9554 57.4654 28.9554C56.8665 28.9554 56.3579 28.8418 55.9398 28.6145C55.5217 28.3759 55.1827 28.0635 54.9227 27.6772C54.6628 27.2909 54.4707 26.8592 54.3464 26.382C54.2334 25.8934 54.1769 25.3935 54.1769 24.8822C54.1769 24.3482 54.2334 23.8312 54.3464 23.3313C54.4707 22.8314 54.6628 22.3883 54.9227 22.002C55.1827 21.6043 55.5217 21.2919 55.9398 21.0647C56.3579 20.8261 56.8665 20.7068 57.4654 20.7068C58.1095 20.7068 58.6576 20.8772 59.1096 21.218C59.5616 21.5589 59.8668 22.0702 60.025 22.7519H62.5676C62.4998 22.0588 62.3133 21.4453 62.0082 20.9113C61.7031 20.3773 61.3132 19.9285 60.8386 19.5649C60.3753 19.2013 59.8498 18.9287 59.2622 18.7469C58.6858 18.5537 58.0869 18.4571 57.4654 18.4571C56.5387 18.4571 55.7025 18.6219 54.9567 18.9514C54.2221 19.2809 53.6006 19.7353 53.0921 20.3148C52.5835 20.8942 52.1937 21.5759 51.9224 22.3599C51.6512 23.1325 51.5156 23.9733 51.5156 24.8822C51.5156 25.7684 51.6512 26.5978 51.9224 27.3704C52.1937 28.1317 52.5835 28.7963 53.0921 29.3644C53.6006 29.9325 54.2221 30.3813 54.9567 30.7108C55.7025 31.0289 56.5387 31.188 57.4654 31.188C58.053 31.188 58.635 31.0687 59.2113 30.8301C59.7877 30.5801 60.3131 30.1484 60.7877 29.5348Z" fill="white"/>
<path d="M64.649 22.1043V30.9153H67.056V26.9444C67.056 26.5467 67.0955 26.1774 67.1747 25.8366C67.2538 25.4957 67.3837 25.2003 67.5645 24.9504C67.7566 24.6891 68.0052 24.4845 68.3104 24.3368C68.6155 24.1891 68.9884 24.1153 69.4291 24.1153C69.576 24.1153 69.7286 24.1267 69.8868 24.1494C70.045 24.1607 70.1806 24.1778 70.2936 24.2005V21.9509C70.1015 21.8941 69.9263 21.8657 69.7681 21.8657C69.463 21.8657 69.1692 21.9111 68.8867 22.002C68.6042 22.0929 68.3386 22.2236 68.09 22.394C67.8414 22.5531 67.621 22.7519 67.4289 22.9905C67.2368 23.2177 67.0842 23.4677 66.9712 23.7404H66.9373V22.1043H64.649Z" fill="white"/>
<path d="M73.0751 26.5183C73.0751 26.1661 73.109 25.8196 73.1768 25.4787C73.2446 25.1378 73.3577 24.8368 73.5159 24.5754C73.6854 24.3141 73.9057 24.1039 74.177 23.9449C74.4482 23.7744 74.7872 23.6892 75.194 23.6892C75.6008 23.6892 75.9398 23.7744 76.2111 23.9449C76.4936 24.1039 76.7139 24.3141 76.8721 24.5754C77.0416 24.8368 77.1603 25.1378 77.2281 25.4787C77.2959 25.8196 77.3298 26.1661 77.3298 26.5183C77.3298 26.8705 77.2959 27.217 77.2281 27.5579C77.1603 27.8874 77.0416 28.1885 76.8721 28.4612C76.7139 28.7225 76.4936 28.9327 76.2111 29.0917C75.9398 29.2508 75.6008 29.3303 75.194 29.3303C74.7872 29.3303 74.4482 29.2508 74.177 29.0917C73.9057 28.9327 73.6854 28.7225 73.5159 28.4612C73.3577 28.1885 73.2446 27.8874 73.1768 27.5579C73.109 27.217 73.0751 26.8705 73.0751 26.5183ZM70.6681 26.5183C70.6681 27.2227 70.7755 27.859 70.9902 28.4271C71.2049 28.9952 71.51 29.4837 71.9055 29.8927C72.3011 30.2904 72.7757 30.5972 73.3294 30.813C73.8831 31.0289 74.5047 31.1368 75.194 31.1368C75.8833 31.1368 76.5049 31.0289 77.0586 30.813C77.6236 30.5972 78.1039 30.2904 78.4994 29.8927C78.8949 29.4837 79.2001 28.9952 79.4148 28.4271C79.6295 27.859 79.7368 27.2227 79.7368 26.5183C79.7368 25.8139 79.6295 25.1776 79.4148 24.6095C79.2001 24.0301 78.8949 23.5415 78.4994 23.1439C78.1039 22.7348 77.6236 22.4224 77.0586 22.2065C76.5049 21.9793 75.8833 21.8657 75.194 21.8657C74.5047 21.8657 73.8831 21.9793 73.3294 22.2065C72.7757 22.4224 72.3011 22.7348 71.9055 23.1439C71.51 23.5415 71.2049 24.0301 70.9902 24.6095C70.7755 25.1776 70.6681 25.8139 70.6681 26.5183Z" fill="white"/>
<path d="M89.523 30.9153V22.1043H87.116V26.7228C87.116 27.6204 86.9691 28.268 86.6753 28.6657C86.3815 29.052 85.9069 29.2451 85.2514 29.2451C84.6751 29.2451 84.2739 29.069 84.0479 28.7168C83.8219 28.3532 83.7089 27.8079 83.7089 27.0807V22.1043H81.3019V27.5238C81.3019 28.0692 81.3471 28.5691 81.4375 29.0236C81.5392 29.4667 81.7087 29.8473 81.946 30.1654C82.1833 30.4722 82.5054 30.7108 82.9122 30.8812C83.3303 31.0516 83.8615 31.1368 84.5056 31.1368C85.0141 31.1368 85.5113 31.0232 85.9973 30.796C86.4832 30.5688 86.8787 30.1995 87.1838 29.6882H87.2347V30.9153H89.523Z" fill="white"/>
<path d="M95.7741 29.3303C95.3899 29.3303 95.0621 29.2508 94.7909 29.0917C94.5197 28.9327 94.2993 28.7282 94.1298 28.4782C93.9716 28.2169 93.853 27.9158 93.7739 27.5749C93.7061 27.2341 93.6722 26.8876 93.6722 26.5353C93.6722 26.1718 93.7061 25.8196 93.7739 25.4787C93.8417 25.1378 93.9547 24.8368 94.1129 24.5754C94.2824 24.3141 94.4971 24.1039 94.757 23.9449C95.0282 23.7744 95.3616 23.6892 95.7571 23.6892C96.1413 23.6892 96.4634 23.7744 96.7233 23.9449C96.9945 24.1039 97.2149 24.3198 97.3844 24.5925C97.5539 24.8538 97.6726 25.1549 97.7404 25.4957C97.8195 25.8366 97.859 26.1831 97.859 26.5353C97.859 26.8876 97.8251 27.2341 97.7573 27.5749C97.6895 27.9158 97.5709 28.2169 97.4014 28.4782C97.2431 28.7282 97.0284 28.9327 96.7572 29.0917C96.4973 29.2508 96.1696 29.3303 95.7741 29.3303ZM91.3499 22.1043V34H93.7569V29.8246H93.7908C94.0846 30.2563 94.4576 30.5858 94.9096 30.813C95.3729 31.0289 95.8758 31.1368 96.4182 31.1368C97.0623 31.1368 97.6217 31.0119 98.0963 30.7619C98.5823 30.5119 98.9834 30.1768 99.2999 29.7564C99.6276 29.336 99.8705 28.8531 100.029 28.3078C100.187 27.7624 100.266 27.1943 100.266 26.6035C100.266 25.9786 100.187 25.3821 100.029 24.814C99.8705 24.2346 99.6276 23.729 99.2999 23.2972C98.9721 22.8655 98.5597 22.519 98.0624 22.2576C97.5652 21.9963 96.9719 21.8657 96.2826 21.8657C95.7402 21.8657 95.2429 21.9736 94.7909 22.1895C94.3389 22.4053 93.966 22.7519 93.6722 23.2291H93.6383V22.1043H91.3499Z" fill="white"/>
<path d="M0 0H11.4566C13.8056 0 15.8241 0.360907 17.512 1.08272C19.214 1.80453 20.5221 2.87282 21.4364 4.28757C22.3507 5.70233 22.8078 7.4419 22.8078 9.50629C22.8078 11.1953 22.5265 12.6462 21.9639 13.8588C21.4153 15.057 20.6346 16.0604 19.6219 16.8688C18.6232 17.6628 17.7705 18.3793 15.9085 19.1372C15.9085 19.1372 14.9989 19.6162 14.094 19.8571C9.72853 21.0192 4.13537 19.8571 4.13537 19.8571L4.09317 14.79H6.32964H11.4988C12.6101 14.79 13.5314 14.5879 14.2628 14.1836C14.9942 13.7794 15.5428 13.2164 15.9085 12.4946C16.2883 11.7728 16.4782 10.9355 16.4782 9.98268C16.4782 8.97214 16.2953 8.09875 15.9296 7.3625C15.5639 6.62625 15.0083 6.06323 14.2628 5.67346C13.5173 5.28368 12.5819 5.08879 11.4566 5.08879H6.32964V14.79V31.5288H0V0ZM6.32964 31.5288V18.3088L23.9471 31.2257V31.5288H6.32964Z" fill="white"/>
<path d="M6.32964 14.79H11.4988C12.6101 14.79 13.5314 14.5879 14.2628 14.1836C14.9942 13.7794 15.5428 13.2164 15.9085 12.4946C16.2883 11.7728 16.4782 10.9355 16.4782 9.98268C16.4782 8.97214 16.2953 8.09875 15.9296 7.3625C15.5639 6.62625 15.0083 6.06323 14.2628 5.67346C13.5173 5.28368 12.5819 5.08879 11.4566 5.08879H6.32964V14.79Z" fill="white"/>
<path fill-rule="evenodd" clip-rule="evenodd" d="M40.6698 0.00585938C32.0285 0.235146 25.0938 7.31217 25.0938 16.0089C25.0938 24.7056 32.0285 31.7826 40.6698 32.0119V0.00585938Z" fill="white"/>
</svg>
